<?xml version="1.0"?>
<svg xmlns="http://www.w3.org/2000/svg" xmlns:xlink="http://www.w3.org/1999/xlink" version="1.1" id="Capa_1" x="0px" y="0px" viewBox="0 0 512 512" style="enable-background:new 0 0 512 512;" xml:space="preserve" width="512px" height="512px"><g><g>
	<g>
		<path d="M386.462,262.031c-0.001,0-0.002,0-0.002,0c-1.095-0.165-2.196-0.307-3.301-0.436c-0.206-0.024-0.412-0.048-0.617-0.071    c-1.123-0.124-2.251-0.234-3.385-0.319c-0.007-0.001-0.014-0.001-0.021-0.001c-1.089-0.082-2.185-0.14-3.284-0.186    c-0.269-0.011-0.538-0.022-0.807-0.031c-1.114-0.037-2.229-0.063-3.352-0.063c-0.849,0-1.695,0.011-2.537,0.032    c-1.687,0.043-3.362,0.128-5.027,0.255c-4.162,0.318-8.252,0.895-12.254,1.716c-12.807,2.628-24.716,7.75-35.194,14.834    c-1.31,0.885-2.597,1.802-3.862,2.748c-3.16,2.365-6.174,4.914-9.025,7.634c-1.14,1.087-2.255,2.203-3.343,3.343    c-2.719,2.851-5.269,5.865-7.634,9.025c-0.946,1.264-1.862,2.551-2.748,3.862c-7.085,10.478-12.207,22.387-14.834,35.194    c-0.821,4.003-1.398,8.093-1.716,12.254c-0.127,1.665-0.213,3.341-0.255,5.027c-0.022,0.843-0.032,1.689-0.032,2.537    s0.011,1.695,0.032,2.537c0.043,1.687,0.128,3.362,0.255,5.027c0.318,4.162,0.895,8.252,1.716,12.254    c2.628,12.807,7.75,24.716,14.834,35.194c0.885,1.31,1.802,2.597,2.748,3.862c2.365,3.16,4.914,6.174,7.634,9.025    c1.087,1.14,2.203,2.255,3.343,3.343c2.851,2.719,5.865,5.269,9.025,7.634c1.264,0.946,2.551,1.862,3.862,2.748    c10.478,7.085,22.387,12.207,35.194,14.835c4.002,0.821,8.093,1.399,12.254,1.716c1.665,0.127,3.341,0.213,5.027,0.256    c0.843,0.022,1.689,0.032,2.537,0.032c1.122,0,2.239-0.026,3.352-0.063c0.27-0.009,0.539-0.02,0.807-0.031    c1.099-0.046,2.194-0.104,3.284-0.186c0.007-0.001,0.014-0.001,0.021-0.001c1.134-0.086,2.262-0.196,3.385-0.319    c0.207-0.023,0.413-0.046,0.618-0.071c1.103-0.129,2.202-0.27,3.293-0.435c0.003,0,0.007-0.001,0.01-0.001    c47.311-7.151,83.692-48.085,83.692-97.358C470.154,310.112,433.772,269.178,386.462,262.031z M408.123,348.554l-29.538,39.385    c-2.512,3.349-6.326,5.474-10.496,5.849c-0.441,0.039-0.882,0.059-1.32,0.059c-3.711,0-7.305-1.399-10.049-3.946l-19.692-18.286    c-5.978-5.55-6.323-14.895-0.774-20.872c5.552-5.978,14.896-6.323,20.873-0.773l7.671,7.122l19.695-26.26    c4.894-6.525,14.152-7.848,20.677-2.954C411.694,332.771,413.018,342.029,408.123,348.554z" data-original="#000000" class="active-path" data-old_color="#000000" fill="#FFFFFF"/>
	</g>
</g><g>
	<g>
		<path d="M105.846,241.231h216.615c0.004,0,0.008,0.001,0.012,0.001c15.16-6.339,31.786-9.847,49.219-9.847    c4.995,0,9.922,0.297,14.769,0.857v-79.626H248.615c-8.156,0-14.769-6.613-14.769-14.769V0H56.615    c-8.157,0-14.769,6.613-14.769,14.769v482.462c0,8.157,6.613,14.769,14.769,14.769h315.077c8.157,0,14.769-6.613,14.769-14.769    v-10.703c-4.847,0.559-9.774,0.857-14.769,0.857c-70.579,0-128-57.421-128-128c0-34.361,13.613-65.599,35.725-88.615H105.846    c-8.157,0-14.769-6.613-14.769-14.769S97.69,241.231,105.846,241.231z M105.846,320h108.308c8.157,0,14.769,6.613,14.769,14.769    s-6.613,14.769-14.769,14.769H105.846c-8.157,0-14.769-6.613-14.769-14.769S97.69,320,105.846,320z M105.846,83.692h68.923    c8.157,0,14.769,6.613,14.769,14.769s-6.613,14.769-14.769,14.769h-68.923c-8.157,0-14.769-6.613-14.769-14.769    S97.69,83.692,105.846,83.692z M105.846,162.462h216.615c8.157,0,14.769,6.613,14.769,14.769S330.618,192,322.462,192H105.846    c-8.157,0-14.769-6.613-14.769-14.769S97.69,162.462,105.846,162.462z" data-original="#000000" class="active-path" data-old_color="#000000" fill="#FFFFFF"/>
	</g>
</g><g>
	<g>
		<polygon points="263.385,8.652 263.385,123.077 377.81,123.077   " data-original="#000000" class="active-path" data-old_color="#000000" fill="#FFFFFF"/>
	</g>
</g></g> </svg>
