<?xml version="1.0"?>
<svg xmlns="http://www.w3.org/2000/svg" height="512px" viewBox="0 0 192 192" width="512px"><g><path d="m0 96h78.111a7.994 7.994 0 0 1 3.578.845l37.233 18.616a7.989 7.989 0 0 1 2.069 12.825c-6.155 6.044-15.573 12.423-24.991 7.714l-32-16 29.6 37a8 8 0 0 0 6.247 3h33.203a7.985 7.985 0 0 0 5.163-1.889c5.812-4.919 21.625-18.03 29.787-22.111s14.228-1.921 18.227 1.173a7.972 7.972 0 0 1 .673 11.927l-32.962 32.962a8 8 0 0 1 -4.665 2.281l-58.63 7.329a8 8 0 0 1 -4.961-.992l-51.84-29.623a8 8 0 0 0 -3.967-1.057h-29.875" data-original="#000000" class="active-path" data-old_color="#000000" fill="#FFFFFF"/><path d="m169.6 19.074c-5.464-2.925-16.781-6.047-33.6 3.526-16.82-9.574-28.137-6.451-33.6-3.526-9.151 4.897-14.4 15.441-14.4 28.926 0 26.509 40.152 45.252 44.731 47.3a8.065 8.065 0 0 0 6.538 0c4.579-2.048 44.731-20.791 44.731-47.3 0-13.485-5.249-24.029-14.4-28.926z" data-original="#000000" class="active-path" data-old_color="#000000" fill="#FFFFFF"/></g> </svg>
