<?xml version="1.0"?>
<svg xmlns="http://www.w3.org/2000/svg" height="512px" viewBox="0 0 445.83044 445" width="512px"><g><path d="m309.03125 265.34375 43.792969-35.824219-28.9375 5.253907c-19.867188 3.632812-40.230469 3.632812-60.097657 0l-28.933593-5.253907 43.773437 35.824219c8.851563 7.214844 21.550782 7.214844 30.402344 0zm0 0" data-original="#000000" class="active-path" data-old_color="#000000" fill="#FFFFFF"/><path d="m261.710938 335.863281c19.300781 13.449219 44.9375 13.449219 64.238281 0l20.929687-14.648437c61.992188-43.4375 98.917969-114.367188 98.953125-190.0625v-90.058594c-.003906-11.007812-7.496093-20.605469-18.175781-23.277344l-7.707031-1.929687c-82.8125-20.628907-169.425781-20.628907-252.238281 0l-7.703126 1.929687c-10.683593 2.671875-18.175781 12.269532-18.175781 23.277344v90.058594c.03125 75.695312 36.960938 146.628906 98.957031 190.0625zm50.863281-213.808593c25.011719-24.949219 65.5-24.949219 90.511719 0l-10.910157 11.710937c-8.964843-9.179687-21.230469-14.386719-34.0625-14.460937-12.828125-.074219-25.15625 4.988281-34.226562 14.0625l-11.710938-10.910157zm-128.398438.402343.398438-.402343c25.011719-24.949219 65.5-24.949219 90.511719 0l-10.910157 11.710937c-8.964843-9.179687-21.230469-14.386719-34.0625-14.460937-12.828125-.074219-25.15625 4.988281-34.226562 14.0625zm16.589844 99.847657c-2.824219-2.308594-3.726563-6.238282-2.199219-9.550782 1.53125-3.308594 5.105469-5.167968 8.695313-4.515625l59.375 10.800781c17.988281 3.28125 36.417969 3.28125 54.402343 0l59.375-10.800781c3.589844-.652343 7.164063 1.207031 8.695313 4.515625 1.53125 3.3125.625 7.242188-2.199219 9.550782l-67.75 55.40625c-14.75 12.011718-35.90625 12.011718-50.65625 0zm0 0" data-original="#000000" class="active-path" data-old_color="#000000" fill="#FFFFFF"/><path d="m168.175781 344.566406-29.265625 2.402344 51.496094 23.199219c10.417969 4.726562 22.71875 1.445312 29.398438-7.839844l17.347656-24.136719-5.539063-3.871094c-2.246093-1.601562-4.375-3.257812-6.558593-4.898437-17.917969 8.367187-37.175782 13.496094-56.878907 15.144531zm0 0" data-original="#000000" class="active-path" data-old_color="#000000" fill="#FFFFFF"/><path d="m24.117188 275.96875c19.644531 73.089844 73.683593 132.015625 144.800781 157.902344l24 8.800781c22.144531 7.964844 46.902343 1.320313 62.082031-16.664063l16.390625-19.59375c11.585937-13.785156 21.5-28.898437 29.535156-45.015624-2.359375.234374-4.710937.535156-7.078125.535156-14.769531.019531-29.183594-4.507813-41.289062-12.964844l-2.28125-1.601562-17.453125 24.28125c-11.125 15.488281-31.632813 20.972656-49 13.101562l-79.753907-36c-3.332031-1.496094-5.226562-5.0625-4.601562-8.664062.621094-3.597657 3.605469-6.316407 7.25-6.605469l60.160156-4.882813c15.136719-1.292968 29.992188-4.859375 44.0625-10.582031-54.015625-47.082031-85.046875-115.210937-85.109375-186.863281v-17.703125c-37.042969 10.839843-72.765625 25.753906-106.523437 44.460937l-6.972656 3.847656c-9.632813 5.324219-14.382813 16.535157-11.503907 27.152344zm30.953124-11.90625c17.675782-30.605469 56.816407-41.089844 87.425782-23.414062l-7.457032 14.167968c-11.035156-6.566406-24.238281-8.433594-36.664062-5.191406-12.421875 3.242188-23.03125 11.324219-29.449219 22.445312l-7.199219-3.503906-6.921874-4zm0 0" data-original="#000000" class="active-path" data-old_color="#000000" fill="#FFFFFF"/></g> </svg>
